<mxfile host="app.diagrams.net" modified="2023-07-20T09:56:13.702Z" agent="Mozilla/5.0 (Windows NT 10.0; Win64; x64) AppleWebKit/537.36 (KHTML, like Gecko) Chrome/114.0.0.0 Safari/537.36" etag="_pAi09BHzoo0GQFPyw4-" version="21.6.3" type="github">
  <diagram id="C5RBs43oDa-KdzZeNtuy" name="Page-1">
    <mxGraphModel dx="1257" dy="1815" grid="1" gridSize="10" guides="1" tooltips="1" connect="1" arrows="1" fold="1" page="1" pageScale="1" pageWidth="827" pageHeight="1169" math="0" shadow="0">
      <root>
        <mxCell id="WIyWlLk6GJQsqaUBKTNV-0" />
        <mxCell id="WIyWlLk6GJQsqaUBKTNV-1" parent="WIyWlLk6GJQsqaUBKTNV-0" />
        <mxCell id="x0tw1K9PgqsGTPQfhGF4-18" style="edgeStyle=orthogonalEdgeStyle;rounded=0;orthogonalLoop=1;jettySize=auto;html=1;exitX=1;exitY=0.5;exitDx=0;exitDy=0;labelBackgroundColor=none;strokeColor=#A8201A;fontColor=default;dashed=1;" edge="1" parent="WIyWlLk6GJQsqaUBKTNV-1" source="x0tw1K9PgqsGTPQfhGF4-7" target="x0tw1K9PgqsGTPQfhGF4-11">
          <mxGeometry relative="1" as="geometry">
            <Array as="points">
              <mxPoint x="280" y="15" />
              <mxPoint x="280" y="15" />
            </Array>
          </mxGeometry>
        </mxCell>
        <mxCell id="x0tw1K9PgqsGTPQfhGF4-7" value="Uploading DICOM File" style="ellipse;whiteSpace=wrap;html=1;aspect=fixed;fontSize=16;labelBackgroundColor=none;fillColor=#FAE5C7;strokeColor=#0F8B8D;fontColor=#143642;" vertex="1" parent="WIyWlLk6GJQsqaUBKTNV-1">
          <mxGeometry x="30" y="-50" width="130" height="130" as="geometry" />
        </mxCell>
        <mxCell id="x0tw1K9PgqsGTPQfhGF4-33" style="edgeStyle=orthogonalEdgeStyle;rounded=0;orthogonalLoop=1;jettySize=auto;html=1;exitX=0.5;exitY=1;exitDx=0;exitDy=0;strokeColor=#A8201A;fontColor=#143642;fillColor=#FAE5C7;" edge="1" parent="WIyWlLk6GJQsqaUBKTNV-1" source="x0tw1K9PgqsGTPQfhGF4-11">
          <mxGeometry relative="1" as="geometry">
            <mxPoint x="414.42857142857156" y="160.00000000000023" as="targetPoint" />
          </mxGeometry>
        </mxCell>
        <mxCell id="x0tw1K9PgqsGTPQfhGF4-11" value="&lt;span style=&quot;&quot;&gt;STORAGE - SCU&amp;nbsp;&lt;br&gt;(DICOM Toolkit)&lt;br style=&quot;font-size: 16px;&quot;&gt;&lt;br&gt;&lt;/span&gt;" style="rounded=0;whiteSpace=wrap;html=1;fontSize=16;labelBackgroundColor=none;labelBorderColor=none;spacing=2;fillColor=#FAE5C7;strokeColor=#0F8B8D;fontColor=#143642;" vertex="1" parent="WIyWlLk6GJQsqaUBKTNV-1">
          <mxGeometry x="324" y="-27.5" width="180" height="85" as="geometry" />
        </mxCell>
        <mxCell id="x0tw1K9PgqsGTPQfhGF4-12" value="Postges DB" style="shape=cylinder3;whiteSpace=wrap;html=1;boundedLbl=1;backgroundOutline=1;size=15;fontSize=16;labelBackgroundColor=none;fillColor=#FAE5C7;strokeColor=#0F8B8D;fontColor=#143642;" vertex="1" parent="WIyWlLk6GJQsqaUBKTNV-1">
          <mxGeometry x="70" y="390" width="110" height="110" as="geometry" />
        </mxCell>
        <mxCell id="x0tw1K9PgqsGTPQfhGF4-25" style="edgeStyle=orthogonalEdgeStyle;rounded=0;orthogonalLoop=1;jettySize=auto;html=1;exitX=0.5;exitY=1;exitDx=0;exitDy=0;labelBackgroundColor=none;strokeColor=#A8201A;fontColor=default;" edge="1" parent="WIyWlLk6GJQsqaUBKTNV-1" source="x0tw1K9PgqsGTPQfhGF4-13" target="x0tw1K9PgqsGTPQfhGF4-14">
          <mxGeometry relative="1" as="geometry">
            <Array as="points">
              <mxPoint x="414" y="600" />
              <mxPoint x="414" y="600" />
            </Array>
          </mxGeometry>
        </mxCell>
        <mxCell id="x0tw1K9PgqsGTPQfhGF4-13" value="&lt;font style=&quot;font-size: 16px;&quot;&gt;DCM4CHEE-ARC-UI&lt;br&gt;running on docker&lt;/font&gt;" style="rounded=0;whiteSpace=wrap;html=1;fontSize=16;labelBackgroundColor=none;fillColor=#FAE5C7;strokeColor=#0F8B8D;fontColor=#143642;" vertex="1" parent="WIyWlLk6GJQsqaUBKTNV-1">
          <mxGeometry x="339" y="385" width="150" height="115" as="geometry" />
        </mxCell>
        <mxCell id="x0tw1K9PgqsGTPQfhGF4-14" value="User can see DICOM file on viewer" style="ellipse;whiteSpace=wrap;html=1;aspect=fixed;fontSize=16;labelBackgroundColor=none;fillColor=#FAE5C7;strokeColor=#0F8B8D;fontColor=#143642;" vertex="1" parent="WIyWlLk6GJQsqaUBKTNV-1">
          <mxGeometry x="354" y="630" width="130" height="130" as="geometry" />
        </mxCell>
        <mxCell id="x0tw1K9PgqsGTPQfhGF4-15" style="edgeStyle=orthogonalEdgeStyle;rounded=0;orthogonalLoop=1;jettySize=auto;html=1;exitX=0.5;exitY=1;exitDx=0;exitDy=0;labelBackgroundColor=none;strokeColor=#A8201A;fontColor=default;" edge="1" parent="WIyWlLk6GJQsqaUBKTNV-1" source="x0tw1K9PgqsGTPQfhGF4-13" target="x0tw1K9PgqsGTPQfhGF4-13">
          <mxGeometry relative="1" as="geometry" />
        </mxCell>
        <mxCell id="x0tw1K9PgqsGTPQfhGF4-17" value="local file system" style="rounded=0;whiteSpace=wrap;html=1;fontSize=16;labelBackgroundColor=none;fillColor=#FAE5C7;strokeColor=#0F8B8D;fontColor=#143642;" vertex="1" parent="WIyWlLk6GJQsqaUBKTNV-1">
          <mxGeometry x="640" y="390" width="140" height="72.5" as="geometry" />
        </mxCell>
        <mxCell id="x0tw1K9PgqsGTPQfhGF4-35" style="edgeStyle=orthogonalEdgeStyle;rounded=0;orthogonalLoop=1;jettySize=auto;html=1;exitX=0.5;exitY=1;exitDx=0;exitDy=0;entryX=0.5;entryY=0;entryDx=0;entryDy=0;entryPerimeter=0;strokeColor=#A8201A;fontColor=#143642;fillColor=#FAE5C7;" edge="1" parent="WIyWlLk6GJQsqaUBKTNV-1" source="x0tw1K9PgqsGTPQfhGF4-30" target="x0tw1K9PgqsGTPQfhGF4-12">
          <mxGeometry relative="1" as="geometry" />
        </mxCell>
        <mxCell id="x0tw1K9PgqsGTPQfhGF4-36" style="edgeStyle=orthogonalEdgeStyle;rounded=0;orthogonalLoop=1;jettySize=auto;html=1;exitX=0.5;exitY=1;exitDx=0;exitDy=0;strokeColor=#A8201A;fontColor=#143642;fillColor=#FAE5C7;" edge="1" parent="WIyWlLk6GJQsqaUBKTNV-1" source="x0tw1K9PgqsGTPQfhGF4-30">
          <mxGeometry relative="1" as="geometry">
            <mxPoint x="710" y="390" as="targetPoint" />
          </mxGeometry>
        </mxCell>
        <mxCell id="x0tw1K9PgqsGTPQfhGF4-41" style="edgeStyle=orthogonalEdgeStyle;rounded=0;orthogonalLoop=1;jettySize=auto;html=1;strokeColor=#A8201A;fontColor=#143642;fillColor=#FAE5C7;" edge="1" parent="WIyWlLk6GJQsqaUBKTNV-1" source="x0tw1K9PgqsGTPQfhGF4-30">
          <mxGeometry relative="1" as="geometry">
            <mxPoint x="413.9999999999998" y="380" as="targetPoint" />
          </mxGeometry>
        </mxCell>
        <mxCell id="x0tw1K9PgqsGTPQfhGF4-30" value="PACS Server&lt;br&gt;(DCM4CHEE)" style="rounded=0;whiteSpace=wrap;html=1;strokeColor=#0F8B8D;fontColor=#143642;fillColor=#FAE5C7;fontSize=16;" vertex="1" parent="WIyWlLk6GJQsqaUBKTNV-1">
          <mxGeometry x="344" y="160" width="140" height="70" as="geometry" />
        </mxCell>
      </root>
    </mxGraphModel>
  </diagram>
</mxfile>
